<svg xmlns="http://www.w3.org/2000/svg" viewBox="0 0 160 160" role="img" aria-labelledby="title desc">
  <title id="title">Symbole naturel</title>
  <desc id="desc">Un soleil stylisé derrière deux feuilles vertes</desc>
  <defs>
    <radialGradient id="sunGradient" cx="50%" cy="50%" r="60%">
      <stop offset="0%" stop-color="#fff3b0" />
      <stop offset="70%" stop-color="#ffd166" />
      <stop offset="100%" stop-color="#f8961e" />
    </radialGradient>
    <linearGradient id="leafGradient" x1="0%" y1="0%" x2="100%" y2="100%">
      <stop offset="0%" stop-color="#2f9e44" />
      <stop offset="100%" stop-color="#0b7285" />
    </linearGradient>
    <filter id="shadow" x="-20%" y="-20%" width="140%" height="140%">
      <feDropShadow dx="0" dy="4" stdDeviation="6" flood-color="#1b4332" flood-opacity="0.25" />
    </filter>
  </defs>
  <rect width="160" height="160" rx="36" fill="#ecf8f4" />
  <g filter="url(#shadow)">
    <circle cx="80" cy="60" r="44" fill="url(#sunGradient)" />
    <path d="M46 84c0 36 34 58 34 58s34-22 34-58c0-24-16-36-34-36s-34 12-34 36z" fill="url(#leafGradient)" />
    <path d="M80 92c-12 0-24 8-28 22 12 8 24 12 28 12s16-4 28-12c-4-14-16-22-28-22z" fill="#1b7d5f" opacity="0.6" />
  </g>
</svg>
